<svg width="30" height="30" viewBox="0 0 30 30" fill="none" xmlns="http://www.w3.org/2000/svg">
<g clip-path="url(#clip0_109_3240)">
<path d="M9.9998 27.9501C11.3275 29.2574 13.114 29.9932 14.9772 30.0002C16.8404 30.0072 18.6323 29.2848 19.9698 27.9876L24.7286 23.5664C27.3021 20.9702 28.7461 17.4626 28.7461 13.807C28.7461 10.1514 27.3021 6.64378 24.7286 4.04763C23.4544 2.76501 21.9392 1.74709 20.27 1.05247C18.6009 0.357849 16.8108 0.000244141 15.0029 0.000244141C13.195 0.000244141 11.405 0.357849 9.73583 1.05247C8.0667 1.74709 6.55144 2.76501 5.2773 4.04763C2.69813 6.65447 1.25584 10.1763 1.26567 13.8435C1.27551 17.5106 2.73668 21.0247 5.3298 23.6176L9.9998 27.9501ZM7.9323 6.69263C8.85798 5.76018 9.95903 5.02012 11.172 4.5151C12.385 4.01008 13.6859 3.75008 14.9998 3.75008C16.3137 3.75008 17.6146 4.01008 18.8276 4.5151C20.0406 5.02012 21.1416 5.76018 22.0673 6.69263C23.9402 8.57397 24.9964 11.1175 25.0072 13.7721C25.0179 16.4267 23.9824 18.9787 22.1248 20.8751L17.3748 25.2814C16.7276 25.8984 15.8658 26.2395 14.9716 26.2325C14.0774 26.2255 13.221 25.8709 12.5836 25.2439L7.9323 20.9214C6.0561 19.0289 5.00342 16.4719 5.00342 13.807C5.00342 11.1421 6.0561 8.58511 7.9323 6.69263ZM8.7498 13.7501C8.7498 13.2528 8.94735 12.7759 9.29898 12.4243C9.65061 12.0727 10.1275 11.8751 10.6248 11.8751H13.1248V9.37513C13.1248 8.87784 13.3223 8.40093 13.674 8.0493C14.0256 7.69767 14.5025 7.50013 14.9998 7.50013C15.4971 7.50013 15.974 7.69767 16.3256 8.0493C16.6773 8.40093 16.8748 8.87784 16.8748 9.37513V11.8751H19.3748C19.8721 11.8751 20.349 12.0727 20.7006 12.4243C21.0523 12.7759 21.2498 13.2528 21.2498 13.7501C21.2498 14.2474 21.0523 14.7243 20.7006 15.076C20.349 15.4276 19.8721 15.6251 19.3748 15.6251H16.8748V18.1251C16.8748 18.6224 16.6773 19.0993 16.3256 19.451C15.974 19.8026 15.4971 20.0001 14.9998 20.0001C14.5025 20.0001 14.0256 19.8026 13.674 19.451C13.3223 19.0993 13.1248 18.6224 13.1248 18.1251V15.6251H10.6248C10.1275 15.6251 9.65061 15.4276 9.29898 15.076C8.94735 14.7243 8.7498 14.2474 8.7498 13.7501Z" fill="current"/>
</g>
<defs>
<clipPath id="clip0_109_3240">
<rect width="30" height="30" fill="white"/>
</clipPath>
</defs>
</svg>
