<svg width="20" height="30" viewBox="0 0 20 30" fill="none" xmlns="http://www.w3.org/2000/svg">
<path d="M9.31591 17.5235C3.98874 18.005 -0.0698124 22.5064 0.000910262 27.8547V28.126C0.000910262 29.1615 0.840383 30.001 1.87591 30.001C2.91144 30.001 3.75091 29.1615 3.75091 28.126V27.7797C3.69454 24.4958 6.11798 21.6955 9.37591 21.2797C12.815 20.9387 15.8793 23.4502 16.2204 26.8892C16.2405 27.0925 16.2507 27.2967 16.2509 27.501V28.126C16.2509 29.1615 17.0904 30.001 18.1259 30.001C19.1614 30.001 20.0009 29.1615 20.0009 28.126V27.5009C19.9948 21.9719 15.5076 17.4946 9.97861 17.5007C9.75753 17.501 9.53652 17.5086 9.31591 17.5235Z" fill="current"/>
<path d="M10 15C14.1421 15 17.5 11.6421 17.5 7.5C17.5 3.35789 14.1421 0 10 0C5.85789 0 2.5 3.35789 2.5 7.5C2.5041 11.6404 5.85959 14.9958 10 15ZM10 3.75C12.0711 3.75 13.75 5.42895 13.75 7.5C13.75 9.57105 12.0711 11.25 10 11.25C7.92895 11.25 6.25 9.57105 6.25 7.5C6.25 5.42895 7.92895 3.75 10 3.75Z" fill="current"/>
</svg>
