
<svg width="24" height="24" viewBox="0 0 24 24" fill="none" xmlns="http://www.w3.org/2000/svg">
<path d="M4.99921 10.4801C5.00031 10.2178 5.10446 9.96636 5.28921 9.7801L9.87921 5.1901C10.4417 4.6283 11.2042 4.31274 11.9992 4.31274C12.7942 4.31274 13.5567 4.6283 14.1192 5.1901L18.7092 9.7801C18.8955 9.96747 19 10.2209 19 10.4851C19 10.7493 18.8955 11.0027 18.7092 11.1901C18.6162 11.2838 18.5056 11.3582 18.3838 11.409C18.2619 11.4598 18.1312 11.4859 17.9992 11.4859C17.8672 11.4859 17.7365 11.4598 17.6146 11.409C17.4928 11.3582 17.3822 11.2838 17.2892 11.1901L12.7092 6.6001C12.6162 6.50638 12.5056 6.43198 12.3838 6.38121C12.2619 6.33044 12.1312 6.30431 11.9992 6.30431C11.8672 6.30431 11.7365 6.33044 11.6146 6.38121C11.4928 6.43198 11.3822 6.50638 11.2892 6.6001L6.7092 11.1901C6.61624 11.2838 6.50564 11.3582 6.38378 11.409C6.26192 11.4598 6.13122 11.4859 5.99921 11.4859C5.86719 11.4859 5.73649 11.4598 5.61463 11.409C5.49277 11.3582 5.38217 11.2838 5.28921 11.1901C5.19653 11.0967 5.1232 10.9858 5.07343 10.864C5.02367 10.7422 4.99844 10.6117 4.99921 10.4801Z" fill="#D9D9D9"/>
<path d="M4.99921 17.4799C5.00031 17.2176 5.10446 16.9662 5.28921 16.7799L11.2892 10.7799C11.3822 10.6862 11.4928 10.6118 11.6146 10.561C11.7365 10.5103 11.8672 10.4841 11.9992 10.4841C12.1312 10.4841 12.2619 10.5103 12.3838 10.561C12.5056 10.6118 12.6162 10.6862 12.7092 10.7799L18.7092 16.7799C18.8955 16.9673 19 17.2207 19 17.4849C19 17.7491 18.8955 18.0026 18.7092 18.1899C18.6162 18.2836 18.5056 18.358 18.3838 18.4088C18.2619 18.4596 18.1312 18.4857 17.9992 18.4857C17.8672 18.4857 17.7365 18.4596 17.6146 18.4088C17.4928 18.358 17.3822 18.2836 17.2892 18.1899L11.9992 12.8999L6.7092 18.1899C6.61624 18.2836 6.50564 18.358 6.38378 18.4088C6.26192 18.4596 6.13122 18.4857 5.99921 18.4857C5.86719 18.4857 5.73649 18.4596 5.61463 18.4088C5.49277 18.358 5.38217 18.2836 5.28921 18.1899C5.19653 18.0965 5.1232 17.9857 5.07343 17.8638C5.02367 17.742 4.99844 17.6115 4.99921 17.4799Z" fill="#D9D9D9"/>
</svg>
