<svg width="42" height="42" viewBox="0 0 42 42" fill="none" xmlns="http://www.w3.org/2000/svg">
<g clip-path="url(#clip0_162_569)">
<path d="M25.3739 12.2499C23.7436 12.2245 22.1699 12.8477 20.9989 13.9824C20.0987 13.1417 18.9698 12.5862 17.7545 12.3857C16.5392 12.1853 15.2917 12.3488 14.1691 12.8559C13.0466 13.3629 12.0991 14.1907 11.446 15.2351C10.7929 16.2794 10.4634 17.4937 10.4989 18.7249C10.4989 24.4229 19.0284 30.5129 20.0014 31.1866C20.2944 31.3899 20.6424 31.4988 20.9989 31.4988C21.3555 31.4988 21.7035 31.3899 21.9964 31.1866C22.9694 30.5129 31.4989 24.4229 31.4989 18.7249C31.5423 17.0549 30.922 15.4358 29.774 14.2221C28.626 13.0085 27.0438 12.2993 25.3739 12.2499ZM20.9989 27.5834C17.9522 25.2559 13.9989 21.3534 13.9989 18.7249C13.8659 15.2144 19.0967 14.5249 19.2489 18.2944V19.2499C19.2489 19.714 19.4333 20.1591 19.7615 20.4873C20.0897 20.8155 20.5348 20.9999 20.9989 20.9999C21.4631 20.9999 21.9082 20.8155 22.2364 20.4873C22.5646 20.1591 22.7489 19.714 22.7489 19.2499V18.2944C22.9012 14.5284 28.1319 15.2144 27.9989 18.7249C27.9989 21.3499 24.0457 25.2559 20.9989 27.5834ZM22.4619 0.0488906C19.462 -0.160746 16.452 0.276393 13.6356 1.33073C10.8191 2.38507 8.26204 4.03202 6.13723 6.16015C4.01241 8.28829 2.36946 10.848 1.31951 13.666C0.269568 16.4841 -0.162873 19.4948 0.0514448 22.4944C0.821445 33.6139 10.6424 41.9999 22.8942 41.9999H33.2489C35.5687 41.9971 37.7927 41.0744 39.4331 39.434C41.0734 37.7937 41.9962 35.5697 41.9989 33.2499V21.5949C42.0638 16.2005 40.0858 10.9813 36.462 6.98487C32.8382 2.98844 27.8369 0.510655 22.4619 0.0488906ZM38.4989 33.2499C38.4989 34.6423 37.9458 35.9776 36.9613 36.9622C35.9767 37.9468 34.6413 38.4999 33.2489 38.4999H22.8942C12.3347 38.4999 4.19895 31.6749 3.5427 22.2529C3.36304 19.7521 3.72282 17.242 4.59768 14.8924C5.47254 12.5428 6.84206 10.4086 8.6135 8.63436C10.3849 6.8601 12.5169 5.48719 14.8651 4.60859C17.2133 3.72999 19.7229 3.36621 22.2239 3.54189C26.7152 3.9392 30.8898 6.02148 33.9089 9.37036C36.9279 12.7192 38.5678 17.0866 38.4989 21.5949V33.2499Z" fill="#9C9C9C"/>
</g>
<defs>
<clipPath id="clip0_162_569">
<rect width="42" height="42" fill="white"/>
</clipPath>
</defs>
</svg>
