<svg width="44" height="44" viewBox="0 0 44 44" fill="none" xmlns="http://www.w3.org/2000/svg">
<g clip-path="url(#clip0_162_566)">
<path d="M44.0001 20.6198C43.735 16.3298 42.2202 12.2112 39.6426 8.77175C37.065 5.33226 33.5373 2.72224 29.4943 1.26346C25.4512 -0.195321 21.0697 -0.439088 16.8898 0.562209C12.7099 1.56351 8.91441 3.7661 5.97119 6.89844C3.02798 10.0308 1.06572 13.9559 0.326343 18.19C-0.413038 22.4241 0.102776 26.782 1.8102 30.7264C3.51762 34.6709 6.342 38.0295 9.93515 40.3882C13.5283 42.7469 17.7331 44.0025 22.0313 44.0003H34.8335C37.2639 43.9979 39.594 43.0313 41.3126 41.3128C43.0311 39.5942 43.9977 37.264 44.0001 34.8336V20.6198ZM40.3335 34.8336C40.3335 36.2923 39.754 37.6913 38.7225 38.7227C37.6911 39.7542 36.2921 40.3336 34.8335 40.3336H22.0313C19.4443 40.3325 16.8867 39.7861 14.5251 38.73C12.1635 37.674 10.051 36.1321 8.32528 34.2048C6.59127 32.2785 5.28916 30.0037 4.50626 27.5329C3.72335 25.0622 3.47776 22.4526 3.78595 19.8791C4.27258 15.82 6.0963 12.0383 8.96959 9.13016C11.8429 6.22201 15.6023 4.35284 19.6553 3.8173C20.4459 3.71821 21.2418 3.668 22.0386 3.66697C26.3112 3.65531 30.4514 5.14812 33.7335 7.88363C35.6502 9.4767 37.2236 11.4424 38.3581 13.6616C39.4926 15.8808 40.1646 18.3073 40.3335 20.794V34.8336Z" fill="#9C9C9C"/>
<path d="M14.6673 16.4997H22.0007C22.4869 16.4997 22.9532 16.3065 23.297 15.9627C23.6408 15.6189 23.834 15.1526 23.834 14.6663C23.834 14.1801 23.6408 13.7138 23.297 13.37C22.9532 13.0262 22.4869 12.833 22.0007 12.833H14.6673C14.1811 12.833 13.7148 13.0262 13.371 13.37C13.0271 13.7138 12.834 14.1801 12.834 14.6663C12.834 15.1526 13.0271 15.6189 13.371 15.9627C13.7148 16.3065 14.1811 16.4997 14.6673 16.4997Z" fill="#9C9C9C"/>
<path d="M29.334 20.167H14.6673C14.1811 20.167 13.7148 20.3601 13.371 20.704C13.0271 21.0478 12.834 21.5141 12.834 22.0003C12.834 22.4866 13.0271 22.9529 13.371 23.2967C13.7148 23.6405 14.1811 23.8337 14.6673 23.8337H29.334C29.8202 23.8337 30.2865 23.6405 30.6303 23.2967C30.9742 22.9529 31.1673 22.4866 31.1673 22.0003C31.1673 21.5141 30.9742 21.0478 30.6303 20.704C30.2865 20.3601 29.8202 20.167 29.334 20.167Z" fill="#9C9C9C"/>
<path d="M29.334 27.5H14.6673C14.1811 27.5 13.7148 27.6932 13.371 28.037C13.0271 28.3808 12.834 28.8471 12.834 29.3333C12.834 29.8196 13.0271 30.2859 13.371 30.6297C13.7148 30.9735 14.1811 31.1667 14.6673 31.1667H29.334C29.8202 31.1667 30.2865 30.9735 30.6303 30.6297C30.9742 30.2859 31.1673 29.8196 31.1673 29.3333C31.1673 28.8471 30.9742 28.3808 30.6303 28.037C30.2865 27.6932 29.8202 27.5 29.334 27.5Z" fill="#9C9C9C"/>
</g>
<defs>
<clipPath id="clip0_162_566">
<rect width="44" height="44" fill="white"/>
</clipPath>
</defs>
</svg>
