<svg width="50" height="50" viewBox="0 0 50 50" fill="none" xmlns="http://www.w3.org/2000/svg">
<g clip-path="url(#clip0_1_2039)">
<path d="M25 0.0884399C19.4874 0.0945047 14.2023 2.28693 10.3041 6.18475C6.40587 10.0826 4.21292 15.3675 4.2063 20.8801C4.2063 26.2343 8.35213 34.6134 16.5292 45.7843C17.5027 47.1179 18.7773 48.2028 20.2492 48.9507C21.7212 49.6987 23.349 50.0885 25 50.0885C26.6511 50.0885 28.2789 49.6987 29.7509 48.9507C31.2228 48.2028 32.4974 47.1179 33.4709 45.7843C41.648 34.6134 45.7938 26.2343 45.7938 20.8801C45.7872 15.3675 43.5942 10.0826 39.696 6.18475C35.7978 2.28693 30.5127 0.0945047 25 0.0884399ZM25 29.1676C23.3519 29.1676 21.7407 28.6789 20.3703 27.7632C18.9999 26.8475 17.9318 25.546 17.3011 24.0233C16.6703 22.5006 16.5053 20.825 16.8268 19.2085C17.1484 17.592 17.9421 16.1072 19.1075 14.9417C20.2729 13.7763 21.7578 12.9826 23.3743 12.6611C24.9908 12.3395 26.6664 12.5045 28.1891 13.1353C29.7118 13.766 31.0133 14.8341 31.929 16.2045C32.8446 17.5749 33.3334 19.1861 33.3334 20.8343C33.3334 23.0444 32.4554 25.164 30.8926 26.7268C29.3298 28.2896 27.2102 29.1676 25 29.1676Z" fill="#EF7D16"/>
</g>
<defs>
<clipPath id="clip0_1_2039">
<rect width="50" height="50" fill="white"/>
</clipPath>
</defs>
</svg>
