<svg width="18" height="18" viewBox="0 0 18 18" fill="none" xmlns="http://www.w3.org/2000/svg">
<g clip-path="url(#clip0_1_2458)">
<path d="M18 11.9998V15.7498C18 16.3465 17.7629 16.9188 17.341 17.3408C16.919 17.7627 16.3467 17.9998 15.75 17.9998H12C10.9478 17.9987 9.91443 17.721 9.00349 17.1944C8.09255 16.6679 7.33609 15.911 6.81 14.9998C7.3754 14.9958 7.93888 14.9334 8.4915 14.8138C8.91236 15.34 9.44625 15.7648 10.0536 16.0567C10.6609 16.3485 11.3262 16.5 12 16.4998H15.75C15.9489 16.4998 16.1397 16.4208 16.2803 16.2801C16.421 16.1395 16.5 15.9487 16.5 15.7498V11.9998C16.4998 11.3257 16.3479 10.6603 16.0555 10.053C15.7631 9.44561 15.3378 8.91186 14.811 8.49129C14.9316 7.93878 14.995 7.3753 15 6.8098C15.9112 7.33588 16.6681 8.09234 17.1946 9.00328C17.7212 9.91423 17.9989 10.9476 18 11.9998ZM13.4827 7.23805C13.5529 6.27178 13.4142 5.30173 13.0761 4.39382C12.7381 3.48591 12.2085 2.66141 11.5234 1.97636C10.8384 1.2913 10.0139 0.761744 9.10598 0.423663C8.19807 0.0855808 7.22802 -0.0530997 6.26175 0.0170446C4.54944 0.212594 2.96769 1.02743 1.81438 2.3081C0.66107 3.58878 0.0157704 5.24692 0 6.9703L0 10.7503C0 12.6493 1.13025 13.4998 2.25 13.4998H6.525C8.2491 13.485 9.90826 12.8401 11.1898 11.6867C12.4714 10.5333 13.2869 8.95106 13.4827 7.23805ZM10.4625 3.03804C10.995 3.57167 11.4066 4.21344 11.6695 4.91994C11.9324 5.62643 12.0405 6.38115 11.9865 7.13305C11.8264 8.4708 11.1829 9.70391 10.177 10.6003C9.17112 11.4966 7.87229 11.9943 6.525 11.9998H2.25C1.554 11.9998 1.5 11.0435 1.5 10.7503V6.9703C1.50625 5.62358 2.00449 4.32557 2.90094 3.32055C3.79739 2.31553 5.03025 1.6728 6.3675 1.51329C6.492 1.50429 6.6165 1.49979 6.741 1.49979C7.43195 1.49915 8.11626 1.63467 8.75481 1.89861C9.39337 2.16255 9.97365 2.54974 10.4625 3.03804Z" fill="#4CB9E7"/>
</g>
<defs>
<clipPath id="clip0_1_2458">
<rect width="18" height="18" fill="white"/>
</clipPath>
</defs>
</svg>
