<svg width="18" height="18" viewBox="0 0 18 18" fill="none" xmlns="http://www.w3.org/2000/svg">
<g clip-path="url(#clip0_1_2461)">
<path d="M13.125 1.43738C12.2804 1.45051 11.4543 1.68627 10.73 2.12083C10.0058 2.55539 9.40899 3.17338 8.99997 3.91238C8.59095 3.17338 7.99417 2.55539 7.2699 2.12083C6.54562 1.68627 5.71951 1.45051 4.87497 1.43738C3.52867 1.49587 2.26025 2.08482 1.34681 3.07555C0.433363 4.06629 -0.0508442 5.37827 -3.1282e-05 6.72488C-3.1282e-05 10.1351 3.58947 13.8596 6.59997 16.3849C7.27213 16.9497 8.12198 17.2594 8.99997 17.2594C9.87795 17.2594 10.7278 16.9497 11.4 16.3849C14.4105 13.8596 18 10.1351 18 6.72488C18.0508 5.37827 17.5666 4.06629 16.6531 3.07555C15.7397 2.08482 14.4713 1.49587 13.125 1.43738ZM10.4362 15.2374C10.0342 15.5759 9.52553 15.7616 8.99997 15.7616C8.4744 15.7616 7.96573 15.5759 7.56372 15.2374C3.71022 12.0041 1.49997 8.90213 1.49997 6.72488C1.4487 5.77592 1.77474 4.84518 2.40699 4.13565C3.03924 3.42613 3.92639 2.99539 4.87497 2.93738C5.82354 2.99539 6.7107 3.42613 7.34295 4.13565C7.97519 4.84518 8.30124 5.77592 8.24997 6.72488C8.24997 6.92379 8.32899 7.11456 8.46964 7.25521C8.61029 7.39586 8.80106 7.47488 8.99997 7.47488C9.19888 7.47488 9.38965 7.39586 9.5303 7.25521C9.67095 7.11456 9.74997 6.92379 9.74997 6.72488C9.6987 5.77592 10.0247 4.84518 10.657 4.13565C11.2892 3.42613 12.1764 2.99539 13.125 2.93738C14.0735 2.99539 14.9607 3.42613 15.5929 4.13565C16.2252 4.84518 16.5512 5.77592 16.5 6.72488C16.5 8.90213 14.2897 12.0041 10.4362 15.2344V15.2374Z" fill="#FF3608"/>
</g>
<defs>
<clipPath id="clip0_1_2461">
<rect width="18" height="18" fill="white"/>
</clipPath>
</defs>
</svg>
