<svg width="40" height="40" viewBox="0 0 40 40" fill="none" xmlns="http://www.w3.org/2000/svg">
<g clip-path="url(#clip0_1_2820)">
<path d="M29.1669 3.19434C27.2902 3.22353 25.4544 3.74742 23.8449 4.71312C22.2354 5.67882 20.9092 7.05212 20.0003 8.69434C19.0913 7.05212 17.7651 5.67882 16.1557 4.71312C14.5462 3.74742 12.7103 3.22353 10.8336 3.19434C7.84182 3.32432 5.0231 4.63309 2.99323 6.83472C0.963355 9.03635 -0.112662 11.9519 0.000256005 14.9443C0.000256005 22.5227 7.97692 30.7993 14.6669 36.411C16.1606 37.6662 18.0492 38.3544 20.0003 38.3544C21.9513 38.3544 23.8399 37.6662 25.3336 36.411C32.0236 30.7993 40.0003 22.5227 40.0003 14.9443C40.1132 11.9519 39.0372 9.03635 37.0073 6.83472C34.9774 4.63309 32.1587 3.32432 29.1669 3.19434Z" fill="#FF4C4C"/>
</g>
<defs>
<clipPath id="clip0_1_2820">
<rect width="40" height="40" fill="white"/>
</clipPath>
</defs>
</svg>
