<svg xmlns="http://www.w3.org/2000/svg" width="34" height="34" viewBox="0 0 34 34" fill="none">
<path d="M24.0833 15.5833H18.4167V9.91667C18.4167 9.54094 18.2674 9.18061 18.0017 8.91493C17.7361 8.64926 17.3757 8.5 17 8.5C16.6243 8.5 16.2639 8.64926 15.9983 8.91493C15.7326 9.18061 15.5833 9.54094 15.5833 9.91667V15.5833H9.91667C9.54094 15.5833 9.18061 15.7326 8.91493 15.9983C8.64926 16.2639 8.5 16.6243 8.5 17C8.5 17.3757 8.64926 17.7361 8.91493 18.0017C9.18061 18.2674 9.54094 18.4167 9.91667 18.4167H15.5833V24.0833C15.5833 24.4591 15.7326 24.8194 15.9983 25.0851C16.2639 25.3507 16.6243 25.5 17 25.5C17.3757 25.5 17.7361 25.3507 18.0017 25.0851C18.2674 24.8194 18.4167 24.4591 18.4167 24.0833V18.4167H24.0833C24.4591 18.4167 24.8194 18.2674 25.0851 18.0017C25.3507 17.7361 25.5 17.3757 25.5 17C25.5 16.6243 25.3507 16.2639 25.0851 15.9983C24.8194 15.7326 24.4591 15.5833 24.0833 15.5833Z" fill="white"/>
</svg>