<svg width="30" height="30" viewBox="0 0 30 30" fill="none" xmlns="http://www.w3.org/2000/svg">
<g clip-path="url(#clip0_1_2186)">
<path d="M2.50002 21.875H5.625C7.0057 21.875 8.12502 22.9943 8.12502 24.375V27.5C8.12502 28.8807 7.0057 30 5.625 30H2.50002C1.11932 30 0 28.8807 0 27.5V24.375C0 22.9943 1.11932 21.875 2.50002 21.875Z" fill="#F0780C"/>
<path d="M24.375 21.875H27.5C28.8808 21.875 30 22.9943 30 24.375V27.5C30 28.8807 28.8808 30 27.5 30H24.375C22.9943 30 21.875 28.8807 21.875 27.5V24.375C21.875 22.9943 22.9943 21.875 24.375 21.875Z" fill="#F0780C"/>
<path d="M2.50002 10.9375H5.625C7.0057 10.9375 8.12502 12.0568 8.12502 13.4376V16.5625C8.12502 17.9432 7.0057 19.0626 5.625 19.0626H2.50002C1.11932 19.0625 0 17.9432 0 16.5625V13.4376C0 12.0568 1.11932 10.9375 2.50002 10.9375Z" fill="#F0780C"/>
<path d="M24.375 10.9375H27.5C28.8807 10.9375 30 12.0568 30 13.4376V16.5625C30 17.9432 28.8808 19.0626 27.5 19.0626H24.375C22.9943 19.0626 21.875 17.9432 21.875 16.5625V13.4376C21.875 12.0568 22.9943 10.9375 24.375 10.9375Z" fill="#F0780C"/>
<path d="M2.50002 0H5.625C7.0057 0 8.12502 1.11932 8.12502 2.50002V5.625C8.12502 7.0057 7.0057 8.12502 5.625 8.12502H2.50002C1.11932 8.12502 0 7.0057 0 5.625V2.50002C0 1.11932 1.11932 0 2.50002 0Z" fill="#F0780C"/>
<path d="M13.4375 21.875H16.5625C17.9432 21.875 19.0625 22.9943 19.0625 24.375V27.5C19.0625 28.8807 17.9432 30 16.5625 30H13.4375C12.0568 30 10.9375 28.8807 10.9375 27.5V24.375C10.9376 22.9943 12.0568 21.875 13.4375 21.875Z" fill="#F0780C"/>
<path d="M13.4375 10.9375H16.5625C17.9432 10.9375 19.0625 12.0568 19.0625 13.4376V16.5625C19.0625 17.9432 17.9432 19.0626 16.5625 19.0626H13.4375C12.0568 19.0626 10.9375 17.9432 10.9375 16.5625V13.4376C10.9376 12.0568 12.0568 10.9375 13.4375 10.9375Z" fill="#F0780C"/>
<path d="M13.4375 0H16.5625C17.9432 0 19.0625 1.11932 19.0625 2.50002V5.625C19.0625 7.0057 17.9432 8.12502 16.5625 8.12502H13.4375C12.0568 8.12502 10.9375 7.0057 10.9375 5.625V2.50002C10.9376 1.11932 12.0568 0 13.4375 0Z" fill="#F0780C"/>
<path d="M24.375 0H27.5C28.8808 0 30 1.11932 30 2.50002V5.625C30 7.0057 28.8808 8.12502 27.5 8.12502H24.375C22.9943 8.12502 21.875 7.0057 21.875 5.625V2.50002C21.875 1.11932 22.9943 0 24.375 0Z" fill="#F0780C"/>
</g>
<defs>
<clipPath id="clip0_1_2186">
<rect width="30" height="30" fill="white"/>
</clipPath>
</defs>
</svg>
