<svg width="36" height="36" viewBox="0 0 36 36" fill="none" xmlns="http://www.w3.org/2000/svg">
<g clip-path="url(#clip0_162_623)">
<path d="M18 1.5V10.5C17.9978 12.2283 17.3999 13.903 16.3069 15.2419C15.214 16.5807 13.6929 17.5019 12 17.85V34.5C12 34.8978 11.842 35.2794 11.5607 35.5607C11.2794 35.842 10.8978 36 10.5 36C10.1022 36 9.72064 35.842 9.43934 35.5607C9.15804 35.2794 9 34.8978 9 34.5V17.85C7.30712 17.5019 5.78602 16.5807 4.69308 15.2419C3.60014 13.903 3.00218 12.2283 3 10.5V1.5C3 1.10218 3.15804 0.720644 3.43934 0.43934C3.72064 0.158035 4.10218 0 4.5 0C4.89782 0 5.27936 0.158035 5.56066 0.43934C5.84196 0.720644 6 1.10218 6 1.5V10.5C6.00384 11.4274 6.29413 12.3309 6.83113 13.087C7.36814 13.8432 8.12564 14.4149 9 14.724V1.5C9 1.10218 9.15804 0.720644 9.43934 0.43934C9.72064 0.158035 10.1022 0 10.5 0C10.8978 0 11.2794 0.158035 11.5607 0.43934C11.842 0.720644 12 1.10218 12 1.5V14.724C12.8744 14.4149 13.6319 13.8432 14.1689 13.087C14.7059 12.3309 14.9962 11.4274 15 10.5V1.5C15 1.10218 15.158 0.720644 15.4393 0.43934C15.7206 0.158035 16.1022 0 16.5 0C16.8978 0 17.2794 0.158035 17.5607 0.43934C17.842 0.720644 18 1.10218 18 1.5ZM33 15C32.9329 17.8507 32.2237 20.6495 30.9252 23.1881C29.6266 25.7267 27.7722 27.9398 25.5 29.6625V34.5C25.5 34.8978 25.342 35.2794 25.0607 35.5607C24.7794 35.842 24.3978 36 24 36C23.6022 36 23.2206 35.842 22.9393 35.5607C22.658 35.2794 22.5 34.8978 22.5 34.5V3C22.4865 2.43639 22.6406 1.88146 22.9425 1.40539C23.2445 0.929327 23.6809 0.553516 24.1965 0.3255C24.7888 0.0845478 25.4384 0.0213452 26.066 0.143616C26.6936 0.265887 27.272 0.568336 27.7305 1.014C31.2095 4.83143 33.0951 9.83595 33 15ZM30 15C30.0425 10.6082 28.4369 6.36012 25.5 3.0945V25.605C28.3111 22.7823 29.9233 18.983 30 15Z" fill="current"/>
</g>
<defs>
<clipPath id="clip0_162_623">
<rect width="36" height="36" fill="white"/>
</clipPath>
</defs>
</svg>
