<svg width="30" height="30" viewBox="0 0 30 30" fill="none" xmlns="http://www.w3.org/2000/svg">
<g clip-path="url(#clip0_106_2068)">
<path d="M27.2062 7.27294L18.99 1.29669C17.8905 0.500324 16.577 0.0530349 15.22 0.0129395H15.19H15.1663H15.135C15.0462 0.0129395 14.9588 0.0129395 14.8713 0.0129395H14.8263H14.8025H14.7825C13.424 0.0520359 12.1088 0.499861 11.0087 1.29794L2.79375 7.27294C1.9297 7.90381 1.22647 8.72942 0.741084 9.68282C0.255695 10.6362 0.00180596 11.6906 0 12.7604C0.00263852 13.6852 0.371181 14.5714 1.02511 15.2253C1.67904 15.8793 2.56521 16.2478 3.49 16.2504H13.125V28.1254C13.125 28.6227 13.3225 29.0996 13.6742 29.4513C14.0258 29.8029 14.5027 30.0004 15 30.0004C15.4973 30.0004 15.9742 29.8029 16.3258 29.4513C16.6775 29.0996 16.875 28.6227 16.875 28.1254V16.2504H26.51C27.4348 16.2478 28.321 15.8793 28.9749 15.2253C29.6288 14.5714 29.9974 13.6852 30 12.7604C29.9982 11.6906 29.7443 10.6362 29.2589 9.68282C28.7735 8.72942 28.0703 7.90381 27.2062 7.27294ZM18.2975 12.5004H11.7025V12.2979C11.702 11.7273 11.8703 11.1693 12.1862 10.6942C12.2125 10.6542 12.2362 10.6154 12.26 10.5754L15 5.70169L17.74 10.5767C17.7638 10.6167 17.7875 10.6554 17.8138 10.6954C18.1297 11.1706 18.298 11.7286 18.2975 12.2992V12.5004ZM5 10.3054L10.2575 6.48044L9.02125 8.68044C8.32155 9.7571 7.94981 11.0139 7.95125 12.2979V12.5004H3.76125C3.79939 12.0674 3.92964 11.6476 4.14329 11.269C4.35693 10.8904 4.64903 10.5619 5 10.3054ZM22.0475 12.5004V12.2979C22.0489 11.0139 21.6772 9.7571 20.9775 8.68044L19.74 6.48044L25 10.3054C25.351 10.5619 25.6431 10.8904 25.8567 11.269C26.0704 11.6476 26.2006 12.0674 26.2387 12.5004H22.0475Z" fill="white"/>
<path d="M5.73875 22.5007H3.75V19.3757C3.75 18.8785 3.55246 18.4015 3.20083 18.0499C2.84919 17.6983 2.37228 17.5007 1.875 17.5007C1.37772 17.5007 0.900805 17.6983 0.549175 18.0499C0.197544 18.4015 0 18.8785 0 19.3757L0 28.1257C0 28.623 0.197544 29.0999 0.549175 29.4516C0.900805 29.8032 1.37772 30.0007 1.875 30.0007C2.37228 30.0007 2.84919 29.8032 3.20083 29.4516C3.55246 29.0999 3.75 28.623 3.75 28.1257V26.2507H5.73875C5.87424 26.2511 6.00409 26.305 6.09989 26.4008C6.1957 26.4966 6.24967 26.6265 6.25 26.762V28.1257C6.25 28.623 6.44754 29.0999 6.79917 29.4516C7.15081 29.8032 7.62772 30.0007 8.125 30.0007C8.62228 30.0007 9.09919 29.8032 9.45083 29.4516C9.80246 29.0999 10 28.623 10 28.1257V26.762C9.99868 25.6322 9.5493 24.5491 8.75045 23.7503C7.95159 22.9514 6.8685 22.5021 5.73875 22.5007Z" fill="white"/>
<path d="M28.125 17.5007C27.6277 17.5007 27.1508 17.6983 26.7992 18.0499C26.4475 18.4015 26.25 18.8785 26.25 19.3757V22.5007H24.2612C23.1315 22.5021 22.0484 22.9514 21.2495 23.7503C20.4507 24.5491 20.0013 25.6322 20 26.762V28.1257C20 28.623 20.1975 29.0999 20.5492 29.4516C20.9008 29.8032 21.3777 30.0007 21.875 30.0007C22.3723 30.0007 22.8492 29.8032 23.2008 29.4516C23.5524 29.0999 23.75 28.623 23.75 28.1257V26.762C23.7503 26.6265 23.8043 26.4966 23.9001 26.4008C23.9959 26.305 24.1258 26.2511 24.2612 26.2507H26.25V28.1257C26.25 28.623 26.4475 29.0999 26.7992 29.4516C27.1508 29.8032 27.6277 30.0007 28.125 30.0007C28.6223 30.0007 29.0992 29.8032 29.4508 29.4516C29.8024 29.0999 30 28.623 30 28.1257V19.3757C30 18.8785 29.8024 18.4015 29.4508 18.0499C29.0992 17.6983 28.6223 17.5007 28.125 17.5007Z" fill="white"/>
</g>
<defs>
<clipPath id="clip0_106_2068">
<rect width="30" height="30" fill="white"/>
</clipPath>
</defs>
</svg>
