<svg width="42" height="42" viewBox="0 0 42 42" fill="none" xmlns="http://www.w3.org/2000/svg">
<g clip-path="url(#clip0_162_572)">
<path d="M15.75 21C17.8267 21 19.8568 20.3842 21.5835 19.2304C23.3102 18.0767 24.656 16.4368 25.4507 14.5182C26.2455 12.5996 26.4534 10.4884 26.0482 8.45156C25.6431 6.41476 24.6431 4.54384 23.1746 3.07538C21.7062 1.60693 19.8352 0.606904 17.7984 0.201759C15.7616 -0.203386 13.6504 0.0045495 11.7318 0.79927C9.8132 1.59399 8.17332 2.9398 7.01957 4.66652C5.86581 6.39323 5.25 8.4233 5.25 10.5C5.25278 13.2839 6.35992 15.953 8.32845 17.9216C10.297 19.8901 12.9661 20.9972 15.75 21ZM15.75 3.5C17.1345 3.5 18.4878 3.91055 19.639 4.67972C20.7901 5.44889 21.6873 6.54214 22.2172 7.82122C22.747 9.1003 22.8856 10.5078 22.6155 11.8656C22.3454 13.2235 21.6787 14.4708 20.6997 15.4498C19.7208 16.4287 18.4735 17.0954 17.1156 17.3655C15.7578 17.6356 14.3503 17.497 13.0712 16.9672C11.7921 16.4373 10.6989 15.5401 9.92971 14.389C9.16054 13.2379 8.75 11.8845 8.75 10.5C8.75 8.64349 9.4875 6.86301 10.8003 5.55026C12.113 4.2375 13.8935 3.5 15.75 3.5ZM31.5 40.25C31.5 40.7141 31.3156 41.1593 30.9874 41.4874C30.6593 41.8156 30.2141 42 29.75 42C29.2859 42 28.8407 41.8156 28.5126 41.4874C28.1844 41.1593 28 40.7141 28 40.25C28 37.0011 26.7094 33.8853 24.4121 31.5879C22.1147 29.2906 18.9989 28 15.75 28C12.5011 28 9.38526 29.2906 7.08794 31.5879C4.79062 33.8853 3.5 37.0011 3.5 40.25C3.5 40.7141 3.31563 41.1593 2.98744 41.4874C2.65925 41.8156 2.21413 42 1.75 42C1.28587 42 0.840752 41.8156 0.512563 41.4874C0.184374 41.1593 0 40.7141 0 40.25C0 36.0728 1.65937 32.0668 4.61307 29.1131C7.56677 26.1594 11.5728 24.5 15.75 24.5C19.9272 24.5 23.9332 26.1594 26.8869 29.1131C29.8406 32.0668 31.5 36.0728 31.5 40.25ZM41.4873 25.0128C41.6544 25.1742 41.7877 25.3673 41.8794 25.5808C41.9711 25.7943 42.0194 26.0239 42.0214 26.2563C42.0235 26.4887 41.9792 26.7191 41.8912 26.9342C41.8032 27.1492 41.6733 27.3446 41.5089 27.5089C41.3446 27.6733 41.1492 27.8032 40.9342 27.8912C40.7191 27.9792 40.4887 28.0235 40.2563 28.0214C40.0239 28.0194 39.7943 27.9712 39.5808 27.8794C39.3673 27.7877 39.1742 27.6544 39.0127 27.4873L35.875 24.3495L32.7373 27.4873C32.4072 27.806 31.9651 27.9824 31.5063 27.9784C31.0475 27.9744 30.6085 27.7904 30.2841 27.4659C29.9596 27.1415 29.7756 26.7026 29.7716 26.2437C29.7676 25.7849 29.944 25.3428 30.2627 25.0128L33.4005 21.875L30.2627 18.7373C29.944 18.4072 29.7676 17.9651 29.7716 17.5063C29.7756 17.0475 29.9596 16.6085 30.2841 16.2841C30.6085 15.9596 31.0475 15.7756 31.5063 15.7716C31.9651 15.7676 32.4072 15.944 32.7373 16.2628L35.875 19.4005L39.0127 16.2628C39.3428 15.944 39.7849 15.7676 40.2437 15.7716C40.7025 15.7756 41.1415 15.9596 41.4659 16.2841C41.7904 16.6085 41.9744 17.0475 41.9784 17.5063C41.9824 17.9651 41.806 18.4072 41.4873 18.7373L38.3495 21.875L41.4873 25.0128Z" fill="current"/>
</g>
<defs>
<clipPath id="clip0_162_572">
<rect width="42" height="42" fill="white"/>
</clipPath>
</defs>
</svg>
