<svg width="30" height="30" viewBox="0 0 30 30" fill="none" xmlns="http://www.w3.org/2000/svg">
<g clip-path="url(#clip0_106_2027)">
<path d="M14.3159 17.5235C8.98874 18.005 4.93019 22.5064 5.00091 27.8547V28.126C5.00091 29.1615 5.84038 30.001 6.87591 30.001C7.91144 30.001 8.75091 29.1615 8.75091 28.126V27.7797C8.69454 24.4958 11.118 21.6955 14.3759 21.2797C17.815 20.9387 20.8793 23.4502 21.2204 26.8892C21.2405 27.0925 21.2507 27.2967 21.2509 27.501V28.126C21.2509 29.1615 22.0904 30.001 23.1259 30.001C24.1614 30.001 25.0009 29.1615 25.0009 28.126V27.5009C24.9948 21.9719 20.5076 17.4946 14.9786 17.5007C14.7575 17.501 14.5365 17.5086 14.3159 17.5235Z" fill="white"/>
<path d="M15.001 15C19.1431 15 22.501 11.6421 22.501 7.5C22.501 3.35789 19.1431 0 15.001 0C10.8589 0 7.50098 3.35789 7.50098 7.5C7.50508 11.6404 10.8606 14.9958 15.001 15ZM15.001 3.75C17.072 3.75 18.751 5.42895 18.751 7.5C18.751 9.57105 17.072 11.25 15.001 11.25C12.9299 11.25 11.251 9.57105 11.251 7.5C11.251 5.42895 12.9299 3.75 15.001 3.75Z" fill="white"/>
</g>
<defs>
<clipPath id="clip0_106_2027">
<rect width="30" height="30" fill="white"/>
</clipPath>
</defs>
</svg>
